<svg xmlns="http://www.w3.org/2000/svg" xmlns:xlink="http://www.w3.org/1999/xlink" width="585.918" height="1137" viewBox="0 0 585.918 1137"><svg width="550.801" height="550.801" viewBox="0 0 550.801 550.801" id="svg-file-format-variant" y="0"><path d="M488.426 197.019H475.2v-63.816c0-.398-.063-.799-.116-1.202-.021-2.534-.827-5.023-2.562-6.995L366.325 3.694c-.032-.031-.063-.042-.085-.076-.633-.707-1.371-1.295-2.151-1.804a9.495 9.495 0 0 0-.706-.419 11.131 11.131 0 0 0-2.131-.896c-.2-.056-.38-.138-.58-.19A10.774 10.774 0 0 0 358.193 0H97.2C85.282 0 75.6 9.693 75.6 21.601v175.413H62.377c-17.049 0-30.873 13.818-30.873 30.873v160.545c0 17.043 13.824 30.87 30.873 30.87h13.224V529.2c0 11.907 9.682 21.601 21.6 21.601h356.4c11.907 0 21.6-9.693 21.6-21.601V419.302h13.226c17.044 0 30.871-13.827 30.871-30.87v-160.54c-.001-17.054-13.828-30.873-30.872-30.873zM97.2 21.605h250.193v110.513c0 5.967 4.841 10.8 10.8 10.8H453.6v54.108H97.2V21.605zm241.671 204.067L284.545 386.96h-42.591l-51.69-161.288h39.967l19.617 68.196c5.508 19.143 10.531 37.567 14.36 57.67h.717c4.061-19.385 9.089-38.527 14.592-56.953l20.585-68.918h38.77v.005zM68.458 379.54l7.415-30.153c9.811 5.021 24.888 10.051 40.439 10.051 16.751 0 25.607-6.935 25.607-17.465 0-10.052-7.662-15.795-27.05-22.734-26.8-9.328-44.263-24.168-44.263-47.611 0-27.524 22.971-48.579 61.014-48.579 18.188 0 31.591 3.823 41.159 8.131l-8.126 29.437c-6.465-3.116-17.945-7.657-33.745-7.657-15.791 0-23.454 7.183-23.454 15.552 0 10.296 9.089 14.842 29.917 22.731 28.468 10.536 41.871 25.365 41.871 48.094 0 27.042-20.812 50.013-65.09 50.013-18.421-.001-36.614-4.779-45.694-9.81zm385.143 143.813H97.2V419.302h356.4v104.051zm35.31-143.813c-11.243 3.823-32.537 9.103-53.831 9.103-29.437 0-50.73-7.426-65.57-21.779-14.839-13.875-22.971-34.942-22.738-58.625.253-53.604 39.255-84.235 92.137-84.235 20.81 0 36.852 4.073 44.74 7.896l-7.657 29.202c-8.859-3.829-19.849-6.95-37.567-6.95-30.396 0-53.357 17.233-53.357 52.173 0 33.265 20.81 52.882 50.73 52.882 8.375 0 15.072-.96 17.94-2.395v-33.745h-24.875v-28.471h60.049v84.944h-.001z"></path></svg><svg width="585.918" height="585.918" viewBox="0 0 585.918 585.918" id="svg-open-file-format" y="551"><path d="M357.396 535.335c.776.042 1.542.115 2.329.115h177.39c20.75 0 37.627-16.883 37.627-37.628V86.604c0-20.743-16.877-37.628-37.627-37.628h-177.39c-.781 0-1.553.069-2.329.113V0L11.176 46.207v492.31l346.22 47.401v-50.583zm0-262.76v-17.651h2.592v-8.097l11.014-9.9-13.606 35.648zm22.424-36.706h4.758v-2.688h12.104v2.231l-39.286 103.259v-44.096l22.424-58.706zm173.42 116.755h-1.122l.167-53.325h.955v53.325zM359.726 70.479h177.39c8.893 0 16.125 7.233 16.125 16.125v199.9H541.83v2.688h-54.05v-2.688h-12.976v12.794h2.151v12.296h-2.151v12.977h12.976v-2.337h19.087c-5.532 5.423-11.946 8.783-19.443 10.19v-1.838h-12.798v2.015c-8.347-1.117-15.465-4.607-21.681-10.624-6.168-5.973-9.848-12.894-11.17-21.071h1.563v-12.974h-1.795c1.233-8.325 4.903-15.425 11.159-21.63 6.269-6.213 13.46-9.813 21.923-10.947v2.015h12.798v-1.716c5.848 1.039 11.224 3.404 16.047 7.063v6.656h12.977v-2.312l18.022.129v2.179h12.977v-12.801h-5.664c-5.99-9.838-13.917-17.893-23.598-23.969-9.37-5.89-19.7-9.372-30.771-10.393v-3.087h-12.798v3.027c-17.492 1.251-32.715 8.223-45.292 20.743-12.577 12.515-19.633 27.656-20.999 45.035h-3.043v12.974h3.076c1.596 17.271 8.755 32.263 21.35 44.61 12.566 12.336 27.658 19.202 44.908 20.451v2.688h12.798v-2.761c10.772-1.104 20.841-4.536 30.026-10.206v9.744h12.8v-2.509h11.579v2.509h11.412v132.4c0 8.893-7.233 16.127-16.127 16.127H359.716c-.793 0-1.564-.127-2.33-.243V365.237h2.272v-9.622l-.1-.566 45.518-119.18h4.394v-12.795h-12.798v2.144h-12.109v-.478l20.697-18.599h8.378v-12.294h-12.294v9.428l-22.037 19.798h-7.539v6.779l-14.226 12.777h-.151V70.709c.771-.107 1.538-.23 2.335-.23zm157.723 269.599v6.225c-9.076 6.451-19.154 10.352-30.025 11.575v-2.036h-12.798v2.137c-15.16-1.223-28.399-7.328-39.393-18.163-10.981-10.813-17.329-23.896-18.871-38.909h1.706v-12.979h-1.759c1.349-15.142 7.612-28.381 18.662-39.374 11.055-11.002 24.372-17.238 39.654-18.572v2.128h12.798v-1.892c9.281.989 18.031 3.989 26.068 8.945 8.315 5.118 15.191 11.875 20.483 20.103h-17.523v-2.688h-8.157c-6.1-4.746-13.106-7.746-20.871-8.942v-3.242h-12.798v2.94c-10.61 1.205-19.827 5.664-27.465 13.31-7.643 7.638-12.158 16.809-13.46 27.289h-3.16v12.974h3.197c1.412 10.383 6.021 19.381 13.727 26.803 7.685 7.392 16.81 11.718 27.161 12.898v2.777h12.798v-3.044c11.349-1.628 20.897-6.926 28.431-15.77h6.509v-12.977h-12.798v2.86H487.78v-2.86h-2.865v-12.296h2.865v-2.146h54.049v2.146h2.478c-.021 4.379-.078 13.239-.153 26.574v26.751h-2.324v2.335h-11.58v-14.881h-12.801v.001zm-452.152 9.097c-11.53-.311-22.783-3.838-28.368-7.354l4.549-20.206c6.057 3.482 15.423 7.04 25.168 7.198 10.615.189 16.239-4.484 16.239-11.717 0-6.908-4.872-10.876-17.137-15.69-16.735-6.389-27.496-16.38-27.496-32.15 0-18.509 14.175-33.048 38.079-33.682 11.633-.308 20.271 2.118 26.481 4.945l-5.281 20.486c-4.176-2.092-11.577-5.103-21.646-4.935-9.981.165-14.792 5.133-14.792 10.827 0 6.998 5.72 10.045 18.911 15.368 18.307 7.202 27.032 17.499 27.032 33.285-.006 18.774-13.531 34.376-41.739 33.625zm112.818 1.286l-29.302-.756-34.547-113.296 26.626-.682 13.312 48.063c3.759 13.583 7.195 26.711 9.827 41.063l.506.011c2.801-13.797 6.268-27.454 10.101-40.646l14.394-49.723 27.614-.703-38.531 116.669zm152.12-1.732c-8.902 2.709-25.575 6.289-42.026 5.858-22.363-.6-38.289-6.51-49.25-17.354-10.859-10.383-16.764-25.879-16.598-43.203.178-39.203 28.795-62.355 68.778-63.392 16.115-.425 28.683 2.354 34.908 5.124l-6.048 22.405c-6.949-2.811-15.537-5.042-29.23-4.812-23.142.376-40.326 13.418-40.326 39.278 0 24.631 15.567 39.424 38.299 39.812 6.454.104 11.624-.531 13.862-1.575v-25.544l-19.174-.109v-21.384l46.806-.164v65.06z"></path></svg></svg>